<?xml version="1.0" standalone="no"?>
<!DOCTYPE svg PUBLIC "-//W3C//DTD SVG 20010904//EN"
 "http://www.w3.org/TR/2001/REC-SVG-20010904/DTD/svg10.dtd">
<svg version="1.0" xmlns="http://www.w3.org/2000/svg"
 width="512.000000pt" height="512.000000pt" viewBox="0 0 512.000000 512.000000"
 preserveAspectRatio="xMidYMid meet">

<g transform="translate(0.000000,512.000000) scale(0.100000,-0.100000)"
fill="#000000" stroke="none">
<path d="M1503 5105 c-163 -35 -309 -155 -386 -317 -52 -108 -73 -184 -90
-321 l-12 -97 -116 -54 c-375 -172 -578 -358 -654 -598 -40 -128 -45 -186 -45
-592 0 -421 7 -509 57 -701 48 -185 119 -349 217 -500 60 -92 1017 -1360 1114
-1478 150 -178 372 -323 603 -392 452 -136 941 -13 1274 320 102 103 489 617
493 656 6 55 -49 93 -103 73 -9 -4 -110 -131 -225 -283 -123 -164 -240 -307
-287 -352 -379 -369 -965 -422 -1413 -127 -143 94 -205 167 -763 907 -294 388
-548 727 -565 752 -88 130 -179 356 -223 554 -20 92 -22 134 -26 499 -5 429 0
510 41 627 74 212 241 352 627 525 68 30 129 62 135 70 6 8 15 60 19 117 8
122 44 268 82 340 15 28 57 82 93 118 82 83 148 111 265 113 70 1 88 -3 140
-28 70 -35 148 -109 200 -190 50 -78 65 -83 167 -58 79 20 176 35 301 47 l57
5 0 -198 0 -199 -122 -12 c-135 -13 -286 -42 -342 -65 -56 -23 -63 -92 -13
-129 l27 -21 93 22 c94 22 184 36 295 46 l62 6 0 -199 0 -198 -122 -12 c-135
-13 -286 -42 -342 -65 -56 -23 -63 -92 -13 -129 l27 -21 93 22 c94 22 184 36
295 46 l62 6 0 -189 0 -188 -62 -7 c-169 -17 -386 -104 -534 -214 -85 -63
-154 -133 -154 -157 0 -30 24 -64 53 -76 36 -15 38 -14 158 83 97 79 227 147
354 185 83 25 104 27 265 27 161 0 182 -2 265 -27 127 -38 257 -106 354 -185
120 -97 122 -98 158 -83 29 12 53 46 53 76 0 24 -69 94 -154 157 -148 110
-365 197 -533 214 l-63 7 0 188 0 189 63 -6 c110 -10 200 -24 294 -46 l93 -22
27 21 c49 36 43 101 -11 127 -50 24 -203 54 -343 67 l-123 12 0 198 0 199 63
-6 c110 -10 200 -24 294 -46 l93 -22 27 21 c49 36 43 101 -11 127 -50 24 -203
54 -343 67 l-123 12 0 198 0 199 63 -6 c110 -10 200 -24 294 -46 110 -26 123
-22 168 53 43 73 137 164 203 196 49 24 68 28 137 27 111 -2 178 -29 261 -107
109 -101 166 -247 180 -462 5 -70 11 -106 23 -119 22 -25 157 -86 192 -86 18
0 35 9 48 26 41 52 22 96 -56 133 l-50 23 -12 105 c-29 252 -128 440 -288 546
-167 111 -365 126 -527 39 -51 -27 -175 -141 -212 -195 l-20 -29 -130 23
c-187 33 -521 33 -708 0 l-130 -23 -20 29 c-37 54 -161 168 -212 195 -104 56
-217 70 -341 43z"/>
<path d="M1463 4240 c-39 -16 -43 -40 -43 -268 0 -207 1 -221 21 -246 27 -34
77 -36 107 -3 21 23 22 31 22 251 l0 227 -25 24 c-25 26 -45 30 -82 15z"/>
<path d="M3576 4227 l-26 -26 0 -229 c0 -226 0 -229 23 -250 33 -31 80 -29
106 4 20 25 21 39 21 249 0 248 -3 259 -67 271 -26 5 -37 1 -57 -19z"/>
<path d="M4405 4155 c-29 -28 -32 -65 -7 -92 9 -11 53 -46 96 -78 166 -125
252 -275 271 -478 l7 -68 -79 -36 c-310 -143 -577 -275 -589 -290 -7 -10 -14
-34 -14 -53 -1 -65 -29 -171 -66 -248 -27 -56 -56 -96 -108 -148 -61 -61 -91
-81 -206 -139 -74 -37 -140 -75 -146 -83 -6 -9 -15 -44 -18 -78 -22 -211 -162
-377 -363 -429 -85 -22 -1161 -22 -1246 0 -162 42 -290 162 -338 316 -10 33
-19 75 -19 92 0 18 -5 49 -11 70 -10 36 -16 41 -152 108 -123 62 -151 81 -213
143 -95 95 -140 186 -161 322 -8 55 -20 110 -26 122 -15 30 -416 221 -464 222
-33 0 -73 -37 -73 -69 1 -47 26 -65 210 -151 l185 -87 17 -81 c29 -142 89
-264 179 -365 l46 -52 7 -120 c18 -310 79 -638 129 -693 35 -38 99 -24 118 25
8 21 4 49 -15 122 -14 53 -34 152 -45 219 -21 124 -38 332 -29 332 3 0 35 -13
71 -30 61 -28 66 -32 72 -67 3 -21 17 -73 30 -116 20 -61 25 -100 25 -178 0
-93 2 -102 25 -124 31 -32 66 -32 103 -1 l29 25 49 -35 c67 -48 140 -81 223
-101 l71 -17 0 -78 c0 -65 3 -81 20 -98 28 -28 75 -26 105 5 22 21 25 33 25
100 l0 75 430 0 430 0 0 -75 c0 -67 3 -79 25 -100 30 -31 77 -33 105 -5 17 17
20 33 20 98 l0 78 71 17 c83 20 156 53 224 101 l49 36 26 -25 c33 -32 74 -32
105 0 23 22 25 31 25 124 0 78 5 117 25 178 13 43 27 95 30 116 6 35 11 39 72
67 36 17 68 30 71 30 8 0 -6 -188 -23 -304 -34 -231 -105 -461 -211 -685 -44
-93 -135 -263 -150 -280 -2 -2 -12 3 -22 12 -25 23 -78 21 -102 -3 -17 -17
-20 -33 -20 -123 l0 -103 -61 -85 c-75 -103 -145 -178 -224 -236 l-60 -45 -6
58 c-10 88 -63 120 -123 73 -25 -19 -26 -25 -26 -109 l0 -89 -37 -11 c-21 -6
-78 -16 -126 -22 -90 -12 -210 -3 -299 22 l-38 11 0 89 c0 84 -1 90 -26 109
-60 47 -113 15 -123 -73 l-6 -58 -60 45 c-78 58 -138 121 -219 231 l-66 89 0
103 c0 91 -3 107 -20 124 -24 24 -77 26 -102 3 -10 -9 -20 -14 -21 -12 -19 25
-107 187 -148 274 -29 61 -59 118 -67 128 -20 22 -74 22 -101 -1 -39 -31 -30
-70 52 -235 128 -255 355 -595 487 -727 277 -278 685 -356 1050 -201 174 74
299 186 460 413 400 561 561 995 596 1608 l7 125 46 52 c90 100 150 223 179
365 l17 81 190 89 c105 49 223 105 263 124 l74 34 -5 -308 c-5 -341 -13 -402
-83 -611 -67 -202 -133 -310 -426 -699 -224 -297 -268 -361 -268 -388 0 -58
69 -96 112 -61 24 18 482 627 543 721 97 149 167 311 215 491 53 201 60 284
60 716 0 431 -7 499 -63 637 -56 136 -183 285 -320 373 -70 45 -98 48 -132 14z"/>
<path d="M2140 2775 c-29 -31 -26 -58 30 -233 49 -153 63 -175 110 -175 35 0
80 39 80 70 0 8 -23 86 -51 174 -53 167 -67 189 -119 189 -15 0 -37 -11 -50
-25z"/>
<path d="M2883 2785 c-16 -11 -36 -60 -72 -174 -28 -88 -51 -166 -51 -174 0
-9 11 -28 23 -43 30 -35 82 -38 107 -6 20 24 100 266 108 325 9 68 -59 111
-115 72z"/>
</g>
</svg>
